<?xml version="1.0" encoding="utf-8"?>
<!-- Generator: Adobe Illustrator 17.0.0, SVG Export Plug-In . SVG Version: 6.00 Build 0)  -->
<!DOCTYPE svg PUBLIC "-//W3C//DTD SVG 1.1//EN" "http://www.w3.org/Graphics/SVG/1.1/DTD/svg11.dtd">
<svg version="1.1" id="Layer_1" xmlns="http://www.w3.org/2000/svg" xmlns:xlink="http://www.w3.org/1999/xlink" x="0px" y="0px"
	 width="33.353px" height="35.067px" viewBox="0 0 33.353 35.067" enable-background="new 0 0 33.353 35.067" xml:space="preserve">
<g>
	<path fill="#474747" d="M20.428,31.918c0,0.347-0.277,0.625-0.625,0.625H2.292c-0.348,0-0.625-0.278-0.625-0.625v-1.251
		c0-4.343,6.254-3.127,6.254-7.019c0,0-2.501-2.815-2.501-7.992c0-3.092,2.501-5.628,5.628-5.628c3.092,0,5.629,2.536,5.629,5.628
		c0,5.177-2.502,7.992-2.502,7.992c0,3.892,6.254,2.641,6.254,7.019V31.918z M31.686,24.413c0,0.348-0.278,0.625-0.626,0.625H19.039
		c-1.494-0.486-2.085-1.042-2.085-1.042s2.224-3.371,2.224-8.339c0-3.613-2.397-5.733-2.397-5.733V9.889
		c-0.069-0.556-0.104-1.112-0.104-1.737c0-3.092,2.501-5.628,5.628-5.628c3.093,0,5.629,2.536,5.629,5.628
		c0,5.177-2.502,7.991-2.502,7.991c0,3.892,6.255,2.641,6.255,7.019V24.413z"/>
</g>
</svg>
