<?xml version="1.0" encoding="utf-8"?>
<!-- Generator: Adobe Illustrator 17.0.0, SVG Export Plug-In . SVG Version: 6.00 Build 0)  -->
<!DOCTYPE svg PUBLIC "-//W3C//DTD SVG 1.1//EN" "http://www.w3.org/Graphics/SVG/1.1/DTD/svg11.dtd">
<svg version="1.1" id="Layer_1" xmlns="http://www.w3.org/2000/svg" xmlns:xlink="http://www.w3.org/1999/xlink" x="0px" y="0px"
	 width="33.353px" height="35.067px" viewBox="0 0 33.353 35.067" enable-background="new 0 0 33.353 35.067" xml:space="preserve">
<path fill="#474747" d="M29.809,2.524h-2.501v3.752c0,1.042-0.834,1.876-1.877,1.876c-1.042,0-1.876-0.833-1.876-1.876V2.524H9.797
	v3.752c0,1.042-0.834,1.876-1.876,1.876S6.045,7.319,6.045,6.276V2.524H3.543c-1.042,0-1.876,0.834-1.876,1.876v26.268
	c0,1.042,0.834,1.876,1.876,1.876h26.267c1.043,0,1.877-0.834,1.877-1.876V4.4C31.686,3.358,30.852,2.524,29.809,2.524z
	 M11.048,28.165H6.045v-5.003h5.003V28.165z M11.048,19.409H6.045v-5.003h5.003V19.409z M19.177,28.165h-5.003v-5.003h5.003V28.165z
	 M19.177,19.409h-5.003v-5.003h5.003V19.409z M27.308,28.165h-5.004v-5.003h5.004V28.165z M27.308,19.409h-5.004v-5.003h5.004
	V19.409z"/>
</svg>
