<?xml version="1.0" encoding="utf-8"?>
<!-- Generator: Adobe Illustrator 17.0.0, SVG Export Plug-In . SVG Version: 6.00 Build 0)  -->
<!DOCTYPE svg PUBLIC "-//W3C//DTD SVG 1.1//EN" "http://www.w3.org/Graphics/SVG/1.1/DTD/svg11.dtd">
<svg version="1.1" id="Layer_1" xmlns="http://www.w3.org/2000/svg" xmlns:xlink="http://www.w3.org/1999/xlink" x="0px" y="0px"
	 width="33.353px" height="35.067px" viewBox="0 0 33.353 35.067" enable-background="new 0 0 33.353 35.067" xml:space="preserve">
<g>
	<path fill="#333333" d="M26.062,13.777L10.6,29.238c-0.069,0.069-0.139,0.104-0.208,0.139L2.54,32.504
		c-0.104,0.035-0.174,0.035-0.243,0.035c-0.174,0-0.313-0.069-0.452-0.174c-0.174-0.174-0.208-0.451-0.139-0.694l3.127-7.853
		c0.035-0.069,0.07-0.139,0.139-0.209L20.433,8.148L26.062,13.777z M31.134,6.029l-2.953-2.953c-0.765-0.73-1.945-0.73-2.675,0
		l-3.197,3.196l5.629,5.628l3.196-3.196C31.863,7.975,31.863,6.793,31.134,6.029z"/>
</g>
</svg>
