<?xml version="1.0" encoding="utf-8"?>
<!-- Generator: Adobe Illustrator 17.0.0, SVG Export Plug-In . SVG Version: 6.00 Build 0)  -->
<!DOCTYPE svg PUBLIC "-//W3C//DTD SVG 1.1//EN" "http://www.w3.org/Graphics/SVG/1.1/DTD/svg11.dtd">
<svg version="1.1" id="Layer_1" xmlns="http://www.w3.org/2000/svg" xmlns:xlink="http://www.w3.org/1999/xlink" x="0px" y="0px"
	 width="33.353px" height="35.067px" viewBox="0 0 33.353 35.067" enable-background="new 0 0 33.353 35.067" xml:space="preserve">
<g>
	<g>
		<path fill="#FFFFFF" d="M16.677,35.067c-1.065,0-2.151-0.105-3.321-0.323c-0.67-0.095-1.24-0.663-1.343-1.376l-0.692-3.556
			c-0.945-0.411-1.83-0.924-2.605-1.509l-3.459,1.199c-0.142,0.062-0.356,0.106-0.573,0.106c-0.481,0.001-0.925-0.214-1.25-0.604
			c-1.491-1.697-2.645-3.697-3.32-5.764c-0.264-0.609-0.056-1.395,0.523-1.824l2.724-2.362c-0.055-0.459-0.082-0.961-0.082-1.52
			c0-0.558,0.027-1.059,0.082-1.518l-2.725-2.364c-0.577-0.43-0.785-1.217-0.492-1.905C0.789,9.765,1.943,7.765,3.45,6.047
			c0.448-0.538,1.21-0.734,1.874-0.45l3.393,1.172c0.775-0.585,1.66-1.098,2.604-1.509l0.701-3.604
			c0.094-0.664,0.663-1.232,1.375-1.334c2.072-0.425,4.428-0.436,6.617,0.01c0.656,0.093,1.225,0.663,1.326,1.375l0.693,3.555
			c0.91,0.399,1.78,0.905,2.596,1.51l3.468-1.2c0.14-0.063,0.356-0.108,0.574-0.108c0.48,0,0.924,0.214,1.248,0.604
			c1.491,1.698,2.645,3.697,3.32,5.764c0.265,0.607,0.057,1.393-0.521,1.824l-2.725,2.364c0.055,0.461,0.082,0.962,0.082,1.518
			c0,0.556-0.027,1.058-0.082,1.52l2.724,2.362c0.58,0.431,0.787,1.221,0.49,1.909c-0.644,1.982-1.797,3.982-3.305,5.698
			c-0.447,0.537-1.207,0.735-1.87,0.452l-3.403-1.177c-0.814,0.605-1.684,1.111-2.596,1.511l-0.702,3.605
			c-0.093,0.663-0.662,1.232-1.376,1.334C18.828,34.962,17.742,35.067,16.677,35.067z M13.942,32.817
			c1.978,0.342,3.554,0.334,5.469,0l0.867-4.458l0.515-0.199c1.078-0.417,2.096-1.009,3.022-1.759l0.432-0.35l4.296,1.488
			c1.221-1.434,2.155-3.054,2.73-4.726l-3.439-2.984l0.104-0.563c0.092-0.491,0.137-1.058,0.137-1.73
			c0-0.672-0.045-1.238-0.137-1.729l-0.104-0.563l3.441-2.986c-0.605-1.721-1.537-3.324-2.733-4.727L24.248,9.02l-0.432-0.348
			c-0.93-0.75-1.946-1.342-3.023-1.759l-0.515-0.2L19.409,2.25c-1.87-0.346-3.686-0.335-5.467,0.001l-0.866,4.461l-0.515,0.2
			c-1.128,0.437-2.169,1.041-3.009,1.747L9.117,9.024L4.809,7.533c-1.22,1.436-2.155,3.056-2.73,4.726l3.441,2.985l-0.106,0.564
			c-0.092,0.486-0.136,1.051-0.136,1.728c0,0.677,0.044,1.242,0.136,1.729l0.106,0.563l-3.443,2.986
			c0.605,1.721,1.537,3.324,2.734,4.727l4.306-1.494l0.435,0.365c0.839,0.706,1.879,1.311,3.008,1.747l0.516,0.199L13.942,32.817z
			 M16.677,24.735c-3.97,0-7.2-3.229-7.2-7.199c0-3.969,3.23-7.199,7.2-7.199s7.199,3.229,7.199,7.199
			C23.876,21.506,20.646,24.735,16.677,24.735z M16.677,12.337c-2.867,0-5.2,2.332-5.2,5.199c0,2.915,2.284,5.199,5.2,5.199
			c2.867,0,5.199-2.332,5.199-5.199C21.876,14.669,19.544,12.337,16.677,12.337z"/>
	</g>
</g>
</svg>
