<?xml version="1.0" encoding="utf-8"?>
<!-- Generator: Adobe Illustrator 17.0.0, SVG Export Plug-In . SVG Version: 6.00 Build 0)  -->
<!DOCTYPE svg PUBLIC "-//W3C//DTD SVG 1.1//EN" "http://www.w3.org/Graphics/SVG/1.1/DTD/svg11.dtd">
<svg version="1.1" id="Layer_1" xmlns="http://www.w3.org/2000/svg" xmlns:xlink="http://www.w3.org/1999/xlink" x="0px" y="0px"
	 width="33.353px" height="35.067px" viewBox="0 0 33.353 35.067" enable-background="new 0 0 33.353 35.067" xml:space="preserve">
<g>
	<path fill="#474747" d="M31.687,8.221c-0.833,1.251-1.854,2.317-3.058,3.197v0.799c0,1.645-0.237,3.29-0.712,4.934
		c-0.476,1.646-1.205,3.227-2.189,4.744c-0.984,1.518-2.16,2.855-3.526,4.014c-1.367,1.158-3.006,2.085-4.917,2.779
		c-1.911,0.695-3.967,1.043-6.168,1.043c-3.707,0-6.857-0.834-9.451-2.502c0.486,0.069,0.973,0.104,1.459,0.104
		c2.664,0,5.212-0.974,7.645-2.919c-1.32-0.023-2.508-0.435-3.562-1.233c-1.055-0.8-1.778-1.813-2.172-3.042
		c0.394,0.069,0.776,0.104,1.146,0.104c0.556,0,1.1-0.069,1.633-0.209c-1.413-0.277-2.589-0.984-3.527-2.119
		c-0.938-1.135-1.407-2.444-1.407-3.927v-0.069c0.88,0.486,1.807,0.742,2.78,0.765c-1.831-1.228-2.745-2.93-2.745-5.108
		c0-1.019,0.278-2.016,0.834-2.988c1.552,1.876,3.422,3.365,5.612,4.465c2.189,1.101,4.546,1.72,7.071,1.859
		c-0.093-0.394-0.139-0.869-0.139-1.424c0-1.691,0.596-3.139,1.789-4.344c1.193-1.204,2.646-1.807,4.361-1.807
		c1.76,0,3.266,0.649,4.517,1.946c1.367-0.278,2.664-0.776,3.893-1.494c-0.464,1.483-1.367,2.618-2.711,3.405
		C29.325,9.055,30.507,8.73,31.687,8.221z"/>
</g>
</svg>
